<svg id="Ebene_1" data-name="Ebene 1" xmlns="http://www.w3.org/2000/svg" viewBox="0 0 180.36 56.99"><defs><style>.cls-1{fill:#1a1a18;}.cls-2{fill:#f39100;}</style></defs><title>logo-th-rosenheim-2019_master_quer_2c</title><path class="cls-1" d="M169.19,23.44A28.22,28.22,0,0,0,159,25.51V23.58h-7.9v27.7H159V34.35a20.27,20.27,0,0,1,10.17-3Z" transform="translate(-17.65 -23.43)"/><path class="cls-2" d="M149.24,51.41a20.27,20.27,0,0,1,1.92-8.31V30.31a28.27,28.27,0,0,0-9.84,21.1Z" transform="translate(-17.65 -23.43)"/><path class="cls-2" d="M190.08,51.41H198a28.35,28.35,0,0,0-27.85-28v7.91A20.45,20.45,0,0,1,190.08,51.41Z" transform="translate(-17.65 -23.43)"/><path class="cls-2" d="M169.34,80.13V72.2a20.44,20.44,0,0,1-20.1-20.1h-7.92a28.35,28.35,0,0,0,28,28h.07Z" transform="translate(-17.65 -23.43)"/><path class="cls-2" d="M198,52.1h-7.93A20.44,20.44,0,0,1,170,72.2v7.93h.06a28.35,28.35,0,0,0,27.95-28h0Z" transform="translate(-17.65 -23.43)"/><path class="cls-1" d="M169,51.14H141.64V23.75H169Zm-27.7.32h28v-28h-28Z" transform="translate(-17.65 -23.43)"/><path class="cls-1" d="M197.69,51.14H170.31V23.75h27.38ZM170,51.46h28v-28H170Z" transform="translate(-17.65 -23.43)"/><path class="cls-1" d="M169,79.81H141.64V52.42H169Zm-27.7.32h28v-28h-28Z" transform="translate(-17.65 -23.43)"/><path class="cls-1" d="M197.69,79.81H170.31V52.42h27.38ZM170,80.13h28v-28H170Z" transform="translate(-17.65 -23.43)"/><path class="cls-1" d="M18.94,44.19h1.45v6.62h9.05V44.19H30.9V59.43H29.44V52.05h-9v7.38H18.94Z" transform="translate(-17.65 -23.43)"/><path class="cls-1" d="M44.32,53.93c0,3.15-1.84,5.82-5.21,5.82s-5.21-2.67-5.21-5.82,1.84-5.83,5.21-5.83S44.32,50.77,44.32,53.93Zm-9.07,0c0,2.34,1.28,4.69,3.86,4.69S43,56.27,43,53.93s-1.28-4.7-3.86-4.7S35.25,51.58,35.25,53.93Z" transform="translate(-17.65 -23.43)"/><path class="cls-1" d="M54.84,51.88a3,3,0,0,0-3.12-2.65c-2.58,0-3.86,2.35-3.86,4.7s1.28,4.69,3.86,4.69a3.27,3.27,0,0,0,3.2-3.14h1.35c-.36,2.65-2.09,4.27-4.55,4.27-3.37,0-5.2-2.67-5.2-5.82s1.83-5.83,5.2-5.83a4.11,4.11,0,0,1,4.46,3.78Z" transform="translate(-17.65 -23.43)"/><path class="cls-1" d="M58.87,44.19h1.35v6.13h0a3.73,3.73,0,0,1,3.52-2.22c3.1,0,4,1.62,4,4.25v7.08H66.47V52.56c0-1.9-.62-3.33-2.8-3.33S60.26,50.85,60.22,53v6.42H58.87Z" transform="translate(-17.65 -23.43)"/><path class="cls-1" d="M77.7,51.64c-.07-1.66-1.35-2.41-2.89-2.41-1.19,0-2.6.47-2.6,1.9,0,1.19,1.37,1.62,2.28,1.86l1.8.4c1.53.24,3.13,1.13,3.13,3,0,2.39-2.36,3.31-4.41,3.31-2.56,0-4.31-1.19-4.53-3.88h1.35c.1,1.81,1.45,2.75,3.24,2.75,1.26,0,3-.55,3-2.09,0-1.28-1.2-1.71-2.41-2l-1.73-.38c-1.75-.47-3.07-1.07-3.07-3,0-2.24,2.19-3.09,4.14-3.09,2.19,0,3.94,1.15,4,3.54Z" transform="translate(-17.65 -23.43)"/><path class="cls-1" d="M89.88,51.88a3,3,0,0,0-3.11-2.65c-2.59,0-3.87,2.35-3.87,4.7s1.28,4.69,3.87,4.69A3.28,3.28,0,0,0,90,55.48h1.34c-.36,2.65-2.09,4.27-4.54,4.27-3.38,0-5.21-2.67-5.21-5.82s1.83-5.83,5.21-5.83a4.12,4.12,0,0,1,4.46,3.78Z" transform="translate(-17.65 -23.43)"/><path class="cls-1" d="M93.91,44.19h1.35v6.13h0a3.74,3.74,0,0,1,3.52-2.22c3.1,0,4,1.62,4,4.25v7.08h-1.35V52.56c0-1.9-.62-3.33-2.79-3.33S95.3,50.85,95.26,53v6.42H93.91Z" transform="translate(-17.65 -23.43)"/><path class="cls-1" d="M115.07,59.43h-1.24v-2h0a4.08,4.08,0,0,1-3.79,2.3c-2.78,0-3.87-1.62-3.87-4.18V48.42h1.35v7.17c.06,2,.81,3,2.94,3,2.31,0,3.31-2.18,3.31-4.42V48.42h1.35Z" transform="translate(-17.65 -23.43)"/><path class="cls-1" d="M118.37,44.19h1.35V59.43h-1.35Z" transform="translate(-17.65 -23.43)"/><path class="cls-1" d="M123.84,54.29c0,2,1,4.33,3.63,4.33a3.34,3.34,0,0,0,3.45-2.82h1.35c-.58,2.5-2,4-4.8,4-3.5,0-5-2.69-5-5.82,0-2.91,1.48-5.83,5-5.83s4.95,3.09,4.84,6.19ZM131,53.16c-.07-2-1.33-3.93-3.5-3.93s-3.42,1.92-3.63,3.93Z" transform="translate(-17.65 -23.43)"/><path class="cls-1" d="M18.93,64.88h8.22a4.19,4.19,0,0,1,4.46,4.21,3.76,3.76,0,0,1-2.41,3.82v0c1.64.43,2.11,2,2.22,3.56.06,1,0,2.76.64,3.61H28.71a16.49,16.49,0,0,1-.54-3.65c-.23-1.6-.85-2.3-2.54-2.3H22.28v6H18.93Zm3.35,6.9H26c1.5,0,2.31-.64,2.31-2.18s-.81-2.11-2.31-2.11H22.28Z" transform="translate(-17.65 -23.43)"/><path class="cls-1" d="M39.56,68.79c3.48,0,5.72,2.3,5.72,5.82a5.41,5.41,0,0,1-5.72,5.81c-3.45,0-5.69-2.31-5.69-5.81S36.11,68.79,39.56,68.79Zm0,9.35c2.07,0,2.69-1.78,2.69-3.53s-.62-3.54-2.69-3.54-2.66,1.77-2.66,3.54S37.51,78.14,39.56,78.14Z" transform="translate(-17.65 -23.43)"/><path class="cls-1" d="M49.78,76.53c0,1.33,1.13,1.86,2.33,1.86.87,0,2-.34,2-1.41,0-.91-1.26-1.23-3.43-1.7-1.75-.39-3.5-1-3.5-3,0-2.82,2.43-3.54,4.8-3.54s4.63.81,4.87,3.52H53.94c-.08-1.17-1-1.49-2.07-1.49-.68,0-1.68.12-1.68,1,0,1.09,1.71,1.24,3.43,1.64s3.5,1,3.5,3.1c0,2.9-2.51,3.84-5,3.84s-5.06-1-5.19-3.89Z" transform="translate(-17.65 -23.43)"/><path class="cls-1" d="M61.58,75.34c.09,1.92,1,2.8,2.71,2.8a2.49,2.49,0,0,0,2.39-1.43h2.67a5,5,0,0,1-5.17,3.71c-3.47,0-5.63-2.39-5.63-5.81a5.53,5.53,0,0,1,5.63-5.82c3.76,0,5.57,3.16,5.36,6.55Zm4.93-1.92c-.28-1.54-.94-2.35-2.41-2.35a2.39,2.39,0,0,0-2.52,2.35Z" transform="translate(-17.65 -23.43)"/><path class="cls-1" d="M71.52,69.09H74.4v1.53h.07a4,4,0,0,1,3.37-1.83c3.22,0,4,1.81,4,4.54v6.79h-3V73.89c0-1.82-.53-2.71-1.94-2.71-1.64,0-2.35.92-2.35,3.16v5.78h-3Z" transform="translate(-17.65 -23.43)"/><path class="cls-1" d="M84.37,64.88h3v5.74h.06a3.89,3.89,0,0,1,3.22-1.83c3.23,0,4,1.81,4,4.54v6.79h-3V73.89c0-1.82-.54-2.71-2-2.71-1.64,0-2.34.92-2.34,3.16v5.78h-3Z" transform="translate(-17.65 -23.43)"/><path class="cls-1" d="M99.71,75.34c.08,1.92,1,2.8,2.71,2.8a2.5,2.5,0,0,0,2.39-1.43h2.67a5,5,0,0,1-5.17,3.71c-3.48,0-5.63-2.39-5.63-5.81a5.53,5.53,0,0,1,5.63-5.82c3.76,0,5.57,3.16,5.36,6.55Zm4.93-1.92c-.28-1.54-.94-2.35-2.41-2.35a2.39,2.39,0,0,0-2.52,2.35Z" transform="translate(-17.65 -23.43)"/><path class="cls-1" d="M112.76,67.38h-3v-2.5h3Zm-3,1.71h3v11h-3Z" transform="translate(-17.65 -23.43)"/><path class="cls-1" d="M115.43,69.09h2.86v1.49h0a4,4,0,0,1,3.37-1.79,3.28,3.28,0,0,1,3.23,1.83,4,4,0,0,1,3.33-1.83c2.34,0,4,1.09,4,3.95v7.38h-3V73.87c0-1.48-.13-2.69-1.86-2.69s-2,1.41-2,2.79v6.15h-3V73.93c0-1.28.09-2.75-1.83-2.75-.6,0-2.05.38-2.05,2.54v6.4h-3Z" transform="translate(-17.65 -23.43)"/><path class="cls-1" d="M17.65,23.43H29.72v1.24H24.43v14H23v-14H17.65Z" transform="translate(-17.65 -23.43)"/><path class="cls-1" d="M30.75,33.53c0,2,1,4.33,3.63,4.33A3.34,3.34,0,0,0,37.83,35h1.35c-.58,2.5-2,4-4.8,4-3.5,0-5-2.69-5-5.82,0-2.91,1.48-5.83,5-5.83s4.95,3.09,4.84,6.19Zm7.13-1.13c-.07-2-1.33-3.93-3.5-3.93S31,30.39,30.75,32.4Z" transform="translate(-17.65 -23.43)"/><path class="cls-1" d="M50.21,31.12a3,3,0,0,0-3.12-2.65c-2.58,0-3.86,2.35-3.86,4.7s1.28,4.69,3.86,4.69a3.29,3.29,0,0,0,3.21-3.14h1.34C51.28,37.37,49.55,39,47.09,39c-3.37,0-5.2-2.67-5.2-5.82s1.83-5.83,5.2-5.83a4.11,4.11,0,0,1,4.46,3.78Z" transform="translate(-17.65 -23.43)"/><path class="cls-1" d="M54.9,23.43h1.35v6.13h0a3.74,3.74,0,0,1,3.52-2.22c3.1,0,4,1.62,4,4.25v7.08H62.5V31.8c0-1.9-.62-3.33-2.79-3.33s-3.42,1.62-3.46,3.78v6.42H54.9Z" transform="translate(-17.65 -23.43)"/><path class="cls-1" d="M67.77,27.66h1.35v1.9h0a3.73,3.73,0,0,1,3.52-2.22c3.1,0,4,1.62,4,4.25v7.08H75.37V31.8c0-1.9-.62-3.33-2.79-3.33s-3.42,1.62-3.46,3.78v6.42H67.77Z" transform="translate(-17.65 -23.43)"/><path class="cls-1" d="M80.68,23.43H82v2.16H80.68Zm0,4.23H82v11H80.68Z" transform="translate(-17.65 -23.43)"/><path class="cls-1" d="M92.62,30.88c-.07-1.66-1.35-2.41-2.89-2.41-1.19,0-2.6.47-2.6,1.9,0,1.19,1.37,1.62,2.29,1.86l1.79.4c1.53.24,3.13,1.13,3.13,3C94.34,38.07,92,39,89.93,39c-2.56,0-4.31-1.19-4.53-3.88h1.35c.1,1.81,1.45,2.75,3.24,2.75,1.26,0,3-.55,3-2.09,0-1.28-1.2-1.71-2.41-2l-1.73-.38c-1.75-.47-3.07-1.07-3.07-3,0-2.24,2.19-3.09,4.14-3.09,2.19,0,3.94,1.15,4,3.54Z" transform="translate(-17.65 -23.43)"/><path class="cls-1" d="M105.46,31.12a3,3,0,0,0-3.11-2.65c-2.59,0-3.87,2.35-3.87,4.7s1.28,4.69,3.87,4.69a3.28,3.28,0,0,0,3.2-3.14h1.34c-.36,2.65-2.09,4.27-4.54,4.27-3.37,0-5.21-2.67-5.21-5.82s1.84-5.83,5.21-5.83a4.12,4.12,0,0,1,4.46,3.78Z" transform="translate(-17.65 -23.43)"/><path class="cls-1" d="M110.16,23.43h1.34v6.13h0a3.75,3.75,0,0,1,3.53-2.22c3.09,0,4,1.62,4,4.25v7.08h-1.35V31.8c0-1.9-.61-3.33-2.79-3.33s-3.42,1.62-3.46,3.78v6.42h-1.34Z" transform="translate(-17.65 -23.43)"/><path class="cls-1" d="M123.84,33.53c0,2,1,4.33,3.62,4.33A3.35,3.35,0,0,0,130.92,35h1.35c-.58,2.5-2,4-4.81,4-3.5,0-5-2.69-5-5.82,0-2.91,1.47-5.83,5-5.83s5,3.09,4.85,6.19ZM131,32.4c-.07-2-1.33-3.93-3.51-3.93s-3.41,1.92-3.62,3.93Z" transform="translate(-17.65 -23.43)"/></svg>